<?xml version="1.0" standalone="no"?>
<!DOCTYPE svg PUBLIC "-//W3C//DTD SVG 20010904//EN"
 "http://www.w3.org/TR/2001/REC-SVG-20010904/DTD/svg10.dtd">
<svg version="1.0" xmlns="http://www.w3.org/2000/svg"
 width="1024.000000pt" height="1024.000000pt" viewBox="0 0 1024.000000 1024.000000"
 preserveAspectRatio="xMidYMid meet">

<g transform="translate(0.000000,1024.000000) scale(0.100000,-0.100000)"
fill="#000000" stroke="none">
<path d="M5180 8563 c-152 -9 -426 -60 -600 -113 -720 -217 -1255 -653 -1624
-1325 -107 -194 -246 -538 -246 -608 0 -38 15 -64 48 -80 46 -24 89 -27 142
-11 80 24 126 76 184 214 173 405 358 686 619 936 190 183 353 295 597 413
435 209 966 290 1434 220 295 -44 587 -170 821 -354 76 -59 228 -208 292 -285
147 -175 280 -442 342 -683 45 -173 61 -312 61 -531 0 -148 4 -205 16 -247 26
-89 30 -95 411 -736 95 -161 173 -299 173 -307 0 -9 -50 -43 -122 -83 -142
-79 -188 -120 -213 -187 -16 -41 -17 -57 -8 -110 6 -34 23 -91 38 -126 63
-151 62 -146 38 -177 -114 -145 -120 -171 -69 -302 54 -140 50 -172 -40 -283
-104 -129 -120 -207 -85 -418 25 -149 26 -187 6 -265 -31 -119 -120 -196 -246
-214 -89 -12 -239 2 -609 56 -273 40 -338 46 -485 47 -188 1 -249 -10 -357
-65 -90 -45 -179 -141 -387 -414 -198 -259 -225 -305 -198 -332 20 -21 135
-32 225 -22 122 14 156 38 307 226 160 199 196 237 253 263 115 54 249 49 632
-25 306 -59 468 -78 595 -71 183 10 299 58 411 170 148 147 199 342 159 596
-36 225 -33 246 57 367 28 37 60 88 71 113 29 62 28 153 -3 254 l-24 79 24 41
c58 102 62 115 62 184 -1 48 -10 90 -32 150 -16 45 -30 96 -30 112 0 34 11 43
175 146 146 92 148 94 180 157 51 104 32 190 -87 387 -25 41 -84 140 -130 220
-47 80 -144 244 -215 365 -183 309 -167 266 -160 425 31 769 -356 1504 -1003
1904 -409 254 -865 361 -1400 329z"/>
<path d="M5688 7677 c-342 -128 -373 -565 -50 -724 73 -37 80 -38 182 -38 99
0 110 2 171 32 80 39 150 111 187 191 24 50 27 69 27 162 0 93 -3 111 -27 163
-35 73 -116 155 -193 192 -52 26 -73 30 -160 32 -66 2 -112 -1 -137 -10z"/>
<path d="M4420 7234 c-75 -25 -105 -52 -429 -390 -186 -194 -346 -368 -355
-387 -21 -47 -20 -82 5 -134 14 -30 33 -50 60 -63 50 -26 86 -25 137 3 32 16
454 418 614 582 15 16 30 12 250 -75 128 -51 248 -100 265 -109 l33 -16 -71
-150 c-39 -83 -110 -235 -159 -340 -48 -104 -170 -365 -270 -580 -236 -505
-225 -482 -412 -890 -89 -192 -180 -379 -203 -415 -65 -101 -189 -232 -637
-675 -251 -248 -425 -428 -440 -455 -36 -63 -43 -108 -24 -153 36 -87 164
-103 241 -31 21 20 161 142 404 354 341 296 693 614 734 662 47 56 107 139
467 651 145 206 229 317 241 317 9 0 130 -82 268 -182 139 -101 271 -196 295
-213 23 -16 55 -40 70 -52 l27 -22 -134 -218 c-301 -490 -498 -837 -518 -913
-18 -66 -5 -116 41 -162 45 -46 89 -50 141 -15 22 15 111 134 254 343 121 176
299 432 396 569 309 440 299 424 299 480 0 55 -20 84 -122 176 -51 46 -142
129 -203 184 -60 55 -201 183 -312 284 -112 101 -203 189 -203 196 0 8 53 94
118 192 103 154 205 312 365 561 22 34 45 61 51 59 6 -1 66 -95 133 -207 230
-383 286 -470 319 -491 47 -28 103 -25 150 10 79 59 499 438 521 470 46 68 22
167 -49 212 -43 26 -114 21 -162 -12 -19 -13 -103 -73 -186 -132 -83 -59 -155
-105 -160 -102 -9 6 -93 153 -278 485 -121 218 -149 259 -199 290 -24 16 -133
61 -241 101 -108 40 -278 103 -377 142 -666 257 -715 274 -755 261z"/>
<path d="M3285 5606 c-140 -47 -903 -326 -947 -347 -24 -10 -38 -29 -24 -29 3
0 74 -16 158 -35 419 -97 428 -98 506 -59 44 22 74 53 185 188 147 178 237
293 237 301 0 11 -48 3 -115 -19z"/>
<path d="M3040 4811 c-49 -16 -122 -43 -380 -143 -41 -16 -127 -49 -190 -73
-98 -37 -321 -125 -398 -156 -49 -19 -35 -24 303 -105 104 -25 211 -48 237
-51 82 -10 145 27 232 135 30 37 91 112 136 167 132 162 180 227 174 236 -8
13 -52 9 -114 -10z"/>
</g>
</svg>
